<?xml version="1.0"?><svg width="500" height="375" xmlns="http://www.w3.org/2000/svg" xmlns:xlink="http://www.w3.org/1999/xlink">
 <defs>
  <linearGradient id="linearGradient2413">
   <stop stop-color="#00006d" offset="0" id="stop2415"/>
   <stop stop-color="#1f4b72" stop-opacity="0.836735" offset="0.5" id="stop2419"/>
   <stop stop-color="#ffffff" stop-opacity="0" offset="1" id="stop2417"/>
  </linearGradient>
  <linearGradient id="linearGradient2988">
   <stop stop-color="#ffffff" offset="0" id="stop2990"/>
   <stop stop-color="#ffffff" stop-opacity="0" offset="1" id="stop2992"/>
  </linearGradient>
  <linearGradient id="linearGradient2122">
   <stop stop-color="#d0f0ff" offset="0" id="stop2124"/>
   <stop stop-color="#003968" offset="1" id="stop2126"/>
  </linearGradient>
  <pattern width="131.09375" patternUnits="userSpaceOnUse" patternTransform="translate(-311.6250,-153.0312)" id="pattern2966" height="131.125">
   <path fill="none" fill-opacity="0.75" fill-rule="evenodd" stroke="#000000" stroke-width="1px" id="path2968" d="m40.09375,0.499954l0,31.125l56.5625,0l0,-31.125l-56.5625,0zm56.5625,31.125l0,62.21875l33.9375,0l0,-62.21875l-33.9375,0zm0,62.21875l-56.5625,0l0,36.78125l56.5625,0l0,-36.78125zm-56.5625,0l0,-62.21875l-39.59375,0l0,62.21875l39.59375,0z"/>
  </pattern>
  <linearGradient y2="-2.34925" y1="0.820522" xlink:href="#linearGradient2122" x2="1.891991" x1="0.25776" id="linearGradient2381"/>
  <linearGradient y2="0.655096" y1="0.079265" xlink:href="#linearGradient2122" x2="0.63202" x1="0.30797" id="linearGradient2384"/>
  <linearGradient y2="0.029983" y1="0.81004" xlink:href="#linearGradient2988" x2="0.552817" x1="0.359158" id="linearGradient2393"/>
  <linearGradient y2="2.187914" y1="0.26338" xlink:href="#linearGradient2122" x2="2.83399" x1="0.053141" id="linearGradient2399"/>
  <linearGradient y2="0.667694" y1="-0.146927" xlink:href="#linearGradient2122" x2="0.577285" x1="0.395153" id="linearGradient2405"/>
  <linearGradient y2="1.666448" y1="0.039755" xlink:href="#linearGradient2122" x2="2.089925" x1="0.354995" id="linearGradient2411"/>
  <radialGradient xlink:href="#linearGradient2413" r="158.86395" id="radialGradient2429" gradientUnits="userSpaceOnUse" gradientTransform="matrix(1.5166232585906982,0,0,0.6643065810203552,-53.878170013427734,43.848228454589844)" fy="252.70335" fx="195.70198" cy="252.70335" cx="195.70198"/>
 </defs>
 <g>
  <title>Layer 1</title>
  <path fill="url(#radialGradient2429)" fill-rule="evenodd" stroke-width="1.425" stroke-linecap="round" stroke-linejoin="round" stroke-miterlimit="4" stroke-dashoffset="0" id="path2421" d="m483.864685,211.720642a240.936722,105.534317 0 1 1 -481.873467,0a240.936722,105.534317 0 1 1 481.873467,0z"/>
  <path fill="url(#linearGradient2411)" fill-rule="evenodd" stroke="#000000" stroke-width="1.552868px" id="path2130" d="m146.008102,137.38942c0,0 144.85881,-48.966347 144.85881,-58.147552c0,-9.18119 -4.080505,-4.080528 -5.100647,-14.28186c16.322113,-19.382507 0,-20.402645 -11.221436,-26.523457c-7.140961,17.34227 -46.926117,33.664387 -46.926117,33.664387l-90.791809,49.986504l9.181198,15.301979z"/>
  <path fill="url(#linearGradient2405)" fill-rule="evenodd" stroke="#000000" stroke-width="1.552868px" id="path2120" d="m375.92337,59.859348c-3.060394,-6.120789 -22.442902,-12.241577 -26.523438,-8.161057c-4.080536,4.080528 -23.983246,15.065029 -30.104065,19.145535c-6.120789,4.080544 -8.424011,11.221466 -16.822052,10.438316c-6.120789,-3.06041 -24.483185,-12.241585 -25.503326,-6.120804c-1.020111,6.120804 -6.120789,41.825432 21.422791,41.825432c27.54361,0 57.127441,10.201332 65.288513,-6.120804c8.161041,-16.322113 12.241577,-51.006618 12.241577,-51.006618z"/>
  <path fill="url(#linearGradient2399)" fill-rule="evenodd" stroke="#000000" stroke-width="1.552868px" id="path2116" d="m395.940582,152.691422c0,0 1.020142,-51.00663 -3.060394,-60.187828c-4.080505,-9.18119 -12.241577,-27.543587 -16.322113,-31.624104c-4.080536,-4.08054 -7.14093,-5.10067 -11.221466,0c-4.080536,5.100651 -4.080536,23.463039 -9.181183,30.60397c-5.100677,7.14093 -8.161072,12.241592 -18.362396,13.261734c-10.201324,1.020119 -21.422791,-4.080544 -30.603973,-12.2416c-9.181183,-8.161064 -15.301971,-18.362381 -22.442902,-20.402657c-7.14093,-2.04026 -8.161072,0 -20.402679,7.14093c-12.241577,7.14093 -113.234695,44.885841 -113.234695,44.885841l-10.201324,-1.020149l104.053513,-61.207939c0,0 -83.650864,44.885834 -98.952866,53.04689c-15.301987,8.161049 -23.463051,16.322121 -31.6241,17.342262c-8.161064,1.020142 -32.644249,-5.10067 -39.785172,-1.020142c-7.140923,4.080551 -14.281853,6.120789 -17.342251,14.28186c-3.06041,8.161057 -6.1208,35.704636 -6.1208,35.704636c0,0 12.241589,16.322128 27.543587,20.402664c15.301987,4.080505 89.771652,20.402634 108.134048,17.342255c18.362381,-3.06041 47.946228,-3.06041 60.18782,-10.201324c12.241592,-7.14093 34.684525,-8.161072 45.90596,-8.161072c11.221466,0 61.207947,4.080536 74.469696,-2.040268c13.261719,-6.120789 21.422791,-29.583847 25.503296,-33.664368c4.080536,-4.080551 3.060394,-12.241592 3.060394,-12.241592z"/>
  <path fill="#000000" fill-opacity="0.227027" fill-rule="evenodd" stroke-width="1px" id="path2942" d="m393.381561,144.751144c2.256256,-5.640656 2.256256,31.587723 1.128143,33.843979c-117.325775,22.562637 -186.14183,7.896912 -186.14183,7.896912c0,0 86.866165,7.896942 174.860489,-20.306381c7.896942,-6.768784 10.153198,-21.434509 10.153198,-21.434509z"/>
  <path fill="#171717" fill-rule="evenodd" stroke="#000000" stroke-width="1.355623px" id="path2118" d="m397.980865,158.401184l3.060394,24.877991c0,0 0,1.554886 -1.020142,6.996948c-1.020142,5.442047 -2.040253,8.551804 -8.161072,10.884109c-6.120789,2.332291 -63.248199,10.884109 -66.308594,10.884109c-3.060394,0 -26.523468,-6.219498 -38.765045,-4.664627c-12.241608,1.554871 -20.402649,3.109772 -26.523468,5.442062c-6.120773,2.332306 -19.382507,9.329239 -44.885803,10.106689c-25.503326,0.77742 -53.046906,2.332306 -82.630737,-3.887192c-29.58387,-6.219498 -30.69339,-6.940201 -54.98439,-16.893524c-13.773289,-6.879776 -24.525139,-12.397751 -32.791409,-21.060318c-0.266109,-15.998123 10.24572,-30.460587 10.24572,-24.241104c5.645248,16.098679 11.353741,14.416641 30.086613,23.079208c14.882339,5.442047 38.26226,18.90239 57.644791,16.570053c19.382507,-2.332306 58.147552,-8.551788 66.308609,-8.551788c8.161072,0 76.509933,4.664612 97.932724,2.332291c21.422791,-2.332291 68.348877,-10.106659 78.550201,-13.993835c10.201324,-3.887192 12.241608,-17.881073 12.241608,-17.881073z"/>
  <path fill="none" fill-opacity="0.75" fill-rule="evenodd" stroke="#000000" stroke-width="6.25" stroke-linecap="round" stroke-linejoin="round" stroke-miterlimit="4" id="path2142" d="m141.927597,118.006912l22.015182,13.498703l6.07457,-30.840965l46.379913,2.941917l3.060394,-28.445229l45.90596,8.161064l-10.201324,-16.322121l-19.382523,-1.020142l5.693085,26.167992l-45.196182,-6.197319l-6.712067,29.778854l-47.637009,2.277245z"/>
  <path fill="url(#linearGradient2393)" fill-rule="evenodd" stroke-width="1px" id="path2902" d="m136.441483,127.573532c0,0 -8.161057,4.080536 -17.342255,5.100662c-9.18119,1.020142 -35.704636,-2.040268 -35.704636,-2.040268c0,0 -11.221466,0 -1.020119,6.120804c10.201309,6.120789 87.731392,24.483185 76.509926,18.362396c-11.221466,-6.120819 -39.785172,-9.181198 -47.94622,-14.28186c-8.161057,-5.100693 25.503304,-13.261734 25.503304,-13.261734z"/>
  <path fill="#ffffff" fill-opacity="0.616216" fill-rule="evenodd" stroke-width="1px" id="path2904" d="m373.306854,65.736313c0,0 -2.172241,-8.161064 -4.442413,-2.040272c-2.270172,6.120792 -4.826141,21.422787 -9.435913,27.543575c-3.132202,5.22258 -19.14325,23.617325 -6.147644,13.749405c21.321808,-22.442924 20.02597,-39.252708 20.02597,-39.252708z"/>
  <path fill="#000000" fill-opacity="0.054054" fill-rule="evenodd" stroke-width="1px" id="path2906" d="m233.739517,103.725052c0,0 -89.771667,28.563721 -76.509949,34.684509c13.261734,6.120789 76.509949,-34.684509 76.509949,-34.684509z"/>
  <path fill="none" fill-opacity="0.75" fill-rule="evenodd" stroke="#000000" stroke-width="4.658606" stroke-linecap="round" stroke-linejoin="round" stroke-miterlimit="4" id="path2936" d="m256.182434,67.000282c9.181183,-3.060402 6.120789,-3.060402 14.28186,-1.020142c8.161041,2.04026 16.322113,12.241592 7.14093,13.261726c-9.181213,1.020134 -16.322144,-3.060387 -21.422791,-12.241585z"/>
  <path fill="none" fill-opacity="0.75" fill-rule="evenodd" stroke="#000000" stroke-width="4.658606" stroke-linecap="round" stroke-linejoin="round" stroke-miterlimit="4" id="path2938" d="m257.202545,63.93988c0,0 -4.080521,-9.181179 -11.221451,-8.16106c-7.14093,1.020142 -17.342255,8.161079 -9.181198,5.10067c7.14093,5.100651 20.402649,3.06039 20.402649,3.06039z"/>
  <path fill="none" fill-opacity="0.75" fill-rule="evenodd" stroke="#000000" stroke-width="4.658606" stroke-miterlimit="4" id="path2940" d="m247.001236,89.443192l9.181198,-23.463051c0,0 -19.382507,10.20134 -25.503326,15.302002"/>
  <path fill="#ffffff" fill-opacity="0.216216" fill-rule="evenodd" stroke="#000000" stroke-width="1.541068" stroke-linejoin="round" stroke-miterlimit="4" id="path2944" d="m323.398407,122.870262c0,0 -26.757416,-12.019394 -32.838623,-18.575424c-6.081238,-6.556046 -8.513733,-10.926735 -12.162476,-10.926735c-3.648743,0 -83.921005,37.150864 -91.218475,40.428894c-7.29747,3.278 -34.054886,6.556046 -17.027451,8.741379c17.027451,2.185333 70.542297,0 88.785995,-4.370697c18.243683,-4.370682 64.461029,-15.297417 64.461029,-15.297417z"/>
  <path fill="url(#linearGradient2384)" fill-rule="evenodd" stroke="#000000" stroke-width="1.425" stroke-miterlimit="4" id="path2244" d="m301.204834,87.358139c0,0 27.439148,8.004829 40.436646,2.668274c12.997467,-5.336555 28.883301,-25.348656 34.659973,-28.016922c5.776672,-2.668282 17.499939,-6.805 27.6091,-0.134312c10.109161,6.670704 10.294189,-0.700859 13.182526,13.974674c2.888336,14.675537 3.977509,40.859344 -7.575806,43.527626c-11.553345,2.668282 -108.312439,-32.019341 -108.312439,-32.019341z"/>
  <path fill="url(#linearGradient2381)" fill-rule="evenodd" stroke="#000000" stroke-width="0.921211" stroke-miterlimit="4" id="path2256" d="m218.887405,176.745468l83.761612,-84.050781c0,0 -7.220825,-4.002403 -4.33252,-10.673103c2.888336,-6.6707 7.220856,-20.012093 21.662506,-18.677952c14.44165,1.334126 38.992462,-2.668282 40.436615,6.670696c1.444183,9.338974 -1.444153,17.343811 0,25.34864c1.444183,8.004845 -5.776672,2.668282 -10.109161,8.004845c-4.332489,5.336555 -115.533234,97.392151 -115.533234,97.392151l-17.329987,-6.670685l1.444168,-17.343811z"/>
  <path fill="#000000" fill-opacity="0.324324" fill-rule="evenodd" stroke-width="1px" id="path2319" d="m385.100769,66.392319c5.007935,-5.222549 14.703552,-4.461689 18.704468,-0.12532c7.084381,3.52977 19.913696,10.254745 10.68808,28.306244c-3.296082,10.317406 -8.972931,23.109085 -12.436768,13.851448c1.000244,15.177307 -0.502411,-35.251953 -16.95578,-42.032372z"/>
  <path fill="#b6d9ec" fill-rule="evenodd" stroke="#000000" stroke-width="1.675" stroke-miterlimit="4" id="path1465" d="m129.349136,254.125534c0,0 5.776672,-28.016907 14.441666,-32.019333c8.664993,-4.002411 36.104126,-16.009659 43.324966,-21.346237c7.220825,-5.336548 18.774155,-26.68277 25.994965,-32.019318c7.22084,-5.336563 49.101639,-48.02903 59.2108,-54.69973c10.109161,-6.6707 18.774139,-33.353477 24.550812,-32.019333c5.776672,1.334137 11.553314,6.6707 5.776672,16.009666c-5.776672,9.338966 -80.873276,78.714218 -80.873276,84.050781c0,5.336548 2.888321,13.341385 8.664993,13.341385c5.776672,0 98.203247,-94.723885 111.200745,-97.392166c12.997467,-2.668282 30.327484,-5.336563 38.992462,-1.334137c8.665009,4.002419 23.106659,20.012085 24.550812,14.675529c1.444183,-5.336555 18.630188,-26.67215 8.521027,-37.345276c-4.12146,-8.926704 -9.30481,-10.669628 -16.525635,-13.337906c-7.220825,-2.668282 -5.39386,-3.076721 9.448792,1.32003c11.553314,5.336555 20.218292,1.334141 23.106628,13.341393c2.888336,12.007256 10.109161,13.3414 12.997498,33.353485c2.888336,20.012077 10.109161,69.375237 10.109161,69.375237l-67.875793,49.363159l-8.664978,8.004837l-20.218323,34.687622c0,0 -25.994965,24.014496 -54.878296,25.348633c-28.883301,1.334167 -79.429092,0 -92.42659,-4.002411c-12.997482,-4.002411 -59.210785,-13.3414 -67.875778,-20.012085c-8.664993,-6.670685 -11.553329,-17.343826 -11.553329,-17.343826z"/>
  <path fill="#000000" fill-rule="evenodd" stroke="#000000" stroke-width="0.712308px" id="path1467" d="m129.349136,252.835083c0,0 0,18.096954 1.444168,24.129272c1.444168,6.032349 4.332504,13.572723 11.553329,16.588898c7.220825,3.016144 49.101624,18.096954 95.314926,19.605042c46.213287,1.508087 64.987457,-1.508087 89.538269,-10.55658c24.550812,-9.048462 28.883301,-13.572693 31.771637,-21.113098c2.888336,-7.540405 5.776672,-21.113129 -7.220825,-21.113129c-12.997498,0 -30.327484,19.605042 -41.880798,25.63736c-11.553345,6.032318 -75.096619,7.540405 -75.096619,7.540405c0,0 -5.776657,-7.540405 -10.109161,-13.572723c-4.332489,-6.032318 -89.538254,-12.064636 -95.314926,-27.145447z"/>
  <path fill="#ffffff" fill-opacity="0.345946" fill-rule="evenodd" stroke-width="1px" id="path2240" d="m195.780762,207.430664c0,0 -24.550812,6.6707 -33.215805,12.007263c-8.664993,5.336548 -8.664993,2.668274 -7.22084,6.6707c1.444168,4.002426 24.550812,16.009659 67.875778,6.6707c43.324997,-9.338989 118.421585,-26.682785 90.982437,-25.348663c-27.439148,1.334152 -75.096603,14.675537 -85.205765,13.3414c-10.109161,-1.334137 -33.215805,-13.3414 -33.215805,-13.3414z"/>
  <path fill="#000000" fill-rule="evenodd" stroke-width="1px" id="path2242" d="m360.415619,264.798676c0,0 1.444183,-23.257843 21.662506,-37.793991c20.218292,-14.536148 56.322449,-34.886749 63.543274,-45.062057c7.220825,-10.175293 7.220825,-14.536148 7.220825,-14.536148c0,0 5.776672,36.340378 1.444153,46.515671c-4.332489,10.175308 -59.210785,33.433136 -66.43161,33.433136c-7.220825,0 -4.332489,0 -11.553314,2.907211c-7.220825,2.907242 -15.885834,14.536179 -15.885834,14.536179z"/>
  <path fill="#d2eeff" fill-rule="evenodd" stroke-width="1px" id="path2254" d="m407.267303,111.036453c0,0 8.987213,-10.586411 9.861389,-18.59124c0.874146,-8.004845 5.101349,-11.037872 -1.891907,-19.042717c-7.562103,-7.534927 -26.987427,-14.942947 -19.994171,-13.608807c6.993225,1.334141 25.754059,7.628437 28.376526,15.633274c2.622467,8.004829 0.25708,18.265678 -4.987854,26.270515c-5.244904,8.004829 -7.867371,21.34623 -11.363983,9.338974z"/>
  <path fill="none" fill-opacity="0.75" fill-rule="evenodd" stroke="#000000" stroke-width="7.0877" stroke-linecap="round" stroke-linejoin="round" stroke-miterlimit="4" id="path2280" d="m211.666565,183.416168l33.21582,9.338974l-10.109161,-36.021759l53.434143,-6.6707l-10.109161,-34.687622l59.210785,-9.338974l-20.218323,-16.009674l-25.994995,8.004837l20.218323,30.685196l-57.766617,9.338989l11.553329,34.687622l-53.434143,10.673111z"/>
  <path fill="#ffffff" fill-opacity="0.259459" fill-rule="evenodd" stroke="#000000" stroke-width="1.674929" stroke-linecap="round" stroke-linejoin="round" stroke-miterlimit="4" id="path2282" d="m280.986542,196.757553l72.208252,-74.711792c0,0 2.888336,-5.336563 11.553345,-4.002419c8.664978,1.334137 10.109161,6.6707 18.774139,9.338974c8.664978,2.668266 25.994995,8.004829 27.439148,6.670692c1.444153,-1.334137 -43.324982,37.355896 -60.654968,45.360748c-17.329956,8.004822 -57.766602,21.346207 -69.319916,17.343796z"/>
  <path fill="none" fill-opacity="0.75" fill-rule="evenodd" stroke="#000000" stroke-width="7.0877" stroke-linecap="round" stroke-linejoin="round" stroke-miterlimit="4" id="path2321" d="m315.847656,87.292877c0,0 -2.93689,-7.342224 -13.216003,-8.810669c-10.279114,-1.468445 -26.432037,11.747559 -16.152924,10.279121c10.279144,-1.468452 41.116516,-8.810677 51.39563,-5.873787c10.279114,2.93689 29.368927,19.089798 14.684448,19.089798c-14.684448,0 -36.711151,-14.684464 -36.711151,-14.684464z"/>
  <path fill="none" fill-opacity="0.75" fill-rule="evenodd" stroke="#000000" stroke-width="7.0877" stroke-miterlimit="4" id="path2323" d="m292.352539,107.851128c0,0 13.216003,-13.216011 20.558228,-19.089798c7.342224,-5.873787 1.468445,19.089798 5.873779,33.774261c4.405365,14.684456 1.468445,13.216011 1.468445,13.216011"/>
  <text transform="rotate(-33.9702, 346.071, 159.446) matrix(1.31685, 0, 0, 1, -89.401, 0)" xml:space="preserve" text-anchor="middle" font-family="Arial" font-size="24" id="svg_1" y="168" x="330.262806" stroke-width="0" stroke="#000000" fill="#000000">2012</text>
 </g>
</svg>